<?xml version="1.0" encoding="utf-8"?>
<svg viewBox="0 0 800 500" width="800px" height="500px" fill="none" xmlns="http://www.w3.org/2000/svg">
  <defs>
    <clipPath id="clip0_1795_2707">
      <rect x="60" y="219.5" width="158" height="160" rx="12" fill="white"/>
    </clipPath>
    <clipPath id="clip1_1795_2707">
      <rect width="16.4103" height="16" fill="white" transform="translate(82.5913 347.5)"/>
    </clipPath>
    <clipPath id="clip2_1795_2707">
      <rect width="16.4069" height="16" fill="white" transform="translate(107.001 347.5)"/>
    </clipPath>
    <clipPath id="clip3_1795_2707">
      <rect width="16" height="16" fill="white" transform="translate(131.409 347.5)"/>
    </clipPath>
    <clipPath id="clip4_1795_2707">
      <rect width="16" height="16" fill="white" transform="translate(155.409 347.5)"/>
    </clipPath>
    <clipPath id="clip5_1795_2707">
      <rect width="16" height="16" fill="white" transform="translate(179.409 347.5)"/>
    </clipPath>
    <clipPath id="clip6_1795_2707">
      <rect x="234" y="219.5" width="158" height="160" rx="12" fill="white"/>
    </clipPath>
    <clipPath id="clip7_1795_2707">
      <rect x="408" y="219.5" width="158" height="160" rx="12" fill="white"/>
    </clipPath>
    <clipPath id="clip8_1795_2707">
      <rect x="582" y="219.5" width="158" height="160" rx="12" fill="white"/>
    </clipPath>
  </defs>
  <g id="blank">
    <g id="title">
      <g id="logo">
        <g id="Vector_4"/>
      </g>
      <text id="Blank map" fill="#D9DEDF" style="white-space: pre" font-family="Inter" font-size="32" font-weight="bold" letter-spacing="0em"><tspan x="318.5" y="175.636">Blank map</tspan></text>
    </g>
    <g id="steps">
      <g id="step">
        <g clip-path="url(#clip0_1795_2707)">
          <rect x="60" y="219.5" width="158" height="160" rx="12" fill="white"/>
          <g id="content">
            <text id="Step 1." fill="#D9DEDF" style="white-space: pre" font-family="Inter" font-size="12" font-weight="600" letter-spacing="0em"><tspan x="76" y="247.364">Step 1.</tspan></text>
            <text id="Design the map using your favorite editor software." fill="#111B1E" style="white-space: pre" font-family="Inter" font-size="12" letter-spacing="0em"><tspan x="76" y="272.364">Design the map using </tspan><tspan x="76" y="291.364">your favorite editor </tspan><tspan x="76" y="310.364">software.</tspan></text>
          </g>
          <g id="footer">
            <g id="ai" clip-path="url(#clip1_1795_2707)">
              <path id="Vector_5" d="M85.4973 347.5H96.0956C96.4773 347.5 96.8553 347.575 97.2081 347.72C97.5608 347.866 97.8813 348.08 98.1512 348.35C98.4211 348.62 98.6352 348.941 98.7811 349.293C98.927 349.646 99.0019 350.024 99.0016 350.406V360.594C99.0019 360.976 98.927 361.354 98.7811 361.707C98.6352 362.059 98.4211 362.38 98.1512 362.65C97.8813 362.92 97.5608 363.134 97.2081 363.28C96.8553 363.425 96.4773 363.5 96.0956 363.5H85.4973C85.1156 363.5 84.7375 363.425 84.3848 363.28C84.0321 363.134 83.7116 362.92 83.4417 362.65C83.1717 362.38 82.9577 362.059 82.8118 361.707C82.6659 361.354 82.591 360.976 82.5913 360.594V350.406C82.591 350.024 82.6659 349.646 82.8118 349.293C82.9577 348.941 83.1717 348.62 83.4417 348.35C83.7116 348.08 84.0321 347.866 84.3848 347.72C84.7375 347.575 85.1156 347.5 85.4973 347.5Z" fill="#330000"/>
              <path id="Vector_6" d="M90.5433 357.1H87.9997L87.48 358.707C87.4742 358.736 87.4577 358.762 87.4336 358.78C87.4096 358.798 87.3798 358.806 87.3501 358.803H86.0646C85.9894 358.803 85.9689 358.762 85.9894 358.68L88.1911 352.341C88.2116 352.273 88.2322 352.197 88.2595 352.115C88.287 351.969 88.3008 351.82 88.3005 351.671C88.2985 351.654 88.303 351.637 88.3131 351.623C88.3233 351.609 88.3383 351.599 88.3552 351.596H90.1262C90.1809 351.596 90.2082 351.616 90.2151 351.65L92.7108 358.693C92.7313 358.768 92.7108 358.803 92.6424 358.803H91.2134C91.1892 358.805 91.165 358.799 91.145 358.785C91.125 358.771 91.1104 358.751 91.104 358.727L90.5433 357.1ZM88.3963 355.712H90.133C90.092 355.568 90.0373 355.397 89.9757 355.22C89.9142 355.042 89.8527 354.837 89.7911 354.632C89.7296 354.427 89.6612 354.215 89.5928 354.003C89.5245 353.791 89.4629 353.592 89.4082 353.394C89.3535 353.196 89.3057 353.025 89.2578 352.861H89.2441C89.1827 353.159 89.1051 353.453 89.0116 353.743C88.9091 354.071 88.8065 354.413 88.6971 354.755C88.6014 355.103 88.4988 355.425 88.3963 355.712ZM94.2014 352.765C94.0892 352.767 93.9776 352.748 93.8731 352.706C93.7686 352.665 93.6733 352.604 93.5928 352.526C93.4362 352.354 93.3527 352.129 93.3604 351.897C93.3563 351.784 93.3762 351.671 93.4186 351.566C93.461 351.461 93.525 351.366 93.6065 351.288C93.7709 351.133 93.9889 351.047 94.2151 351.049C94.4817 351.049 94.6869 351.131 94.8373 351.288C94.9888 351.454 95.0697 351.672 95.0629 351.897C95.0671 352.012 95.0481 352.127 95.007 352.235C94.9659 352.343 94.9035 352.442 94.8236 352.526C94.743 352.608 94.6458 352.672 94.5385 352.713C94.4311 352.754 94.3162 352.772 94.2014 352.765ZM93.4356 358.7V353.435C93.4356 353.367 93.4629 353.339 93.5245 353.339H94.8783C94.9399 353.339 94.9672 353.374 94.9672 353.435V358.7C94.9672 358.775 94.9399 358.809 94.8783 358.809H93.5381C93.5238 358.811 93.5093 358.809 93.4959 358.803C93.4824 358.798 93.4703 358.79 93.4604 358.779C93.4506 358.769 93.4432 358.756 93.4389 358.743C93.4346 358.729 93.4335 358.714 93.4356 358.7Z" fill="#FF9A00"/>
            </g>
            <g id="ps" clip-path="url(#clip2_1795_2707)">
              <path id="Vector_7" d="M109.907 347.502H120.503C122.109 347.502 123.408 348.8 123.408 350.407V360.593C123.408 362.199 122.109 363.498 120.503 363.498H109.907C108.3 363.498 107.001 362.199 107.001 360.593V350.407C107.001 348.8 108.3 347.502 109.907 347.502Z" fill="#001E36"/>
              <g id="Group">
                <path id="Vector_8" d="M110.693 358.72V351.685C110.693 351.638 110.713 351.61 110.761 351.61C110.877 351.61 110.987 351.61 111.144 351.603C111.308 351.597 111.479 351.597 111.664 351.59C111.848 351.583 112.046 351.583 112.258 351.576C112.47 351.569 112.675 351.569 112.88 351.569C113.441 351.569 113.906 351.638 114.289 351.781C114.631 351.897 114.945 352.089 115.205 352.342C115.424 352.56 115.594 352.827 115.704 353.121C115.806 353.408 115.861 353.702 115.861 354.01C115.861 354.598 115.724 355.083 115.451 355.466C115.177 355.849 114.795 356.136 114.35 356.3C113.885 356.471 113.373 356.532 112.812 356.532C112.648 356.532 112.539 356.532 112.47 356.525C112.402 356.519 112.306 356.519 112.176 356.519V358.713C112.183 358.761 112.149 358.802 112.101 358.809H110.775C110.72 358.809 110.693 358.781 110.693 358.72ZM112.183 352.93V355.227C112.279 355.233 112.368 355.24 112.45 355.24H112.812C113.079 355.24 113.345 355.199 113.598 355.117C113.817 355.056 114.008 354.926 114.159 354.755C114.302 354.584 114.371 354.352 114.371 354.051C114.378 353.839 114.323 353.627 114.214 353.442C114.097 353.265 113.933 353.128 113.735 353.053C113.482 352.95 113.209 352.909 112.928 352.916C112.751 352.916 112.593 352.916 112.463 352.923C112.327 352.916 112.231 352.923 112.183 352.93ZM120.127 354.81C119.922 354.7 119.703 354.625 119.471 354.577C119.218 354.522 118.965 354.488 118.705 354.488C118.568 354.481 118.425 354.502 118.295 354.536C118.206 354.557 118.131 354.604 118.083 354.673C118.049 354.728 118.028 354.796 118.028 354.857C118.028 354.919 118.055 354.98 118.096 355.035C118.158 355.11 118.24 355.172 118.329 355.22C118.486 355.302 118.65 355.377 118.814 355.445C119.183 355.568 119.539 355.739 119.867 355.944C120.093 356.088 120.277 356.279 120.407 356.512C120.516 356.731 120.571 356.97 120.564 357.216C120.571 357.537 120.475 357.859 120.298 358.125C120.106 358.399 119.84 358.611 119.532 358.734C119.197 358.877 118.787 358.952 118.295 358.952C117.98 358.952 117.673 358.925 117.365 358.863C117.126 358.822 116.886 358.747 116.668 358.645C116.62 358.617 116.586 358.569 116.593 358.515V357.325C116.593 357.305 116.599 357.277 116.62 357.264C116.64 357.25 116.661 357.257 116.681 357.271C116.948 357.428 117.228 357.537 117.529 357.606C117.789 357.674 118.062 357.708 118.336 357.708C118.596 357.708 118.78 357.674 118.903 357.612C119.013 357.565 119.088 357.448 119.088 357.325C119.088 357.23 119.033 357.141 118.924 357.052C118.814 356.963 118.589 356.86 118.254 356.731C117.905 356.607 117.584 356.443 117.283 356.238C117.071 356.088 116.893 355.89 116.763 355.657C116.654 355.439 116.599 355.199 116.606 354.96C116.606 354.666 116.688 354.386 116.839 354.133C117.01 353.859 117.262 353.641 117.556 353.504C117.878 353.34 118.281 353.265 118.766 353.265C119.047 353.265 119.334 353.285 119.614 353.326C119.819 353.353 120.017 353.408 120.202 353.483C120.229 353.49 120.257 353.518 120.27 353.545C120.277 353.572 120.284 353.6 120.284 353.627V354.741C120.284 354.769 120.27 354.796 120.25 354.81C120.188 354.823 120.154 354.823 120.127 354.81Z" fill="#31A8FF"/>
              </g>
            </g>
            <g id="figma" clip-path="url(#clip3_1795_2707)">
              <g id="Group 1">
                <path id="Vector_9" d="M136.742 363.5C138.214 363.5 139.408 362.305 139.408 360.833V358.167H136.742C135.27 358.167 134.075 359.361 134.075 360.833C134.075 362.305 135.27 363.5 136.742 363.5Z" fill="#0ACF83"/>
                <path id="Vector_10" d="M134.075 355.5C134.075 354.028 135.27 352.833 136.742 352.833H139.408V358.167H136.742C135.27 358.167 134.075 356.972 134.075 355.5Z" fill="#A259FF"/>
                <path id="Vector_11" d="M134.075 350.167C134.075 348.695 135.27 347.5 136.742 347.5H139.408V352.833H136.742C135.27 352.833 134.075 351.639 134.075 350.167Z" fill="#F24E1E"/>
                <path id="Vector_12" d="M139.409 347.5H142.075C143.547 347.5 144.742 348.695 144.742 350.167C144.742 351.639 143.547 352.833 142.075 352.833H139.409V347.5Z" fill="#FF7262"/>
                <path id="Vector_13" d="M144.742 355.5C144.742 356.972 143.547 358.167 142.075 358.167C140.603 358.167 139.409 356.972 139.409 355.5C139.409 354.028 140.603 352.833 142.075 352.833C143.547 352.833 144.742 354.028 144.742 355.5Z" fill="#1ABCFE"/>
              </g>
            </g>
            <g id="sketch" clip-path="url(#clip4_1795_2707)">
              <path id="Vector_14" fill-rule="evenodd" clip-rule="evenodd" d="M155.599 353.493L158.805 349.141C158.838 349.097 158.879 349.059 158.927 349.032C158.975 349.004 159.028 348.987 159.083 348.981L163.365 348.505C163.394 348.502 163.424 348.502 163.453 348.505L167.735 348.98C167.79 348.987 167.843 349.004 167.891 349.031C167.938 349.059 167.98 349.096 168.013 349.14L171.219 353.493C171.273 353.566 171.3 353.655 171.297 353.746C171.293 353.836 171.259 353.923 171.199 353.991L163.636 362.737C163.608 362.77 163.573 362.796 163.534 362.814C163.495 362.832 163.452 362.841 163.409 362.841C163.366 362.841 163.324 362.832 163.284 362.814C163.245 362.796 163.21 362.77 163.182 362.737L155.618 353.991C155.559 353.923 155.524 353.836 155.521 353.746C155.517 353.655 155.545 353.566 155.599 353.493ZM164.512 349.791L167.535 352.647C167.565 352.675 167.602 352.693 167.641 352.7C167.681 352.706 167.722 352.7 167.759 352.683C167.795 352.666 167.825 352.638 167.846 352.603C167.866 352.568 167.875 352.528 167.872 352.487L167.727 350.46C167.725 350.436 167.733 350.411 167.748 350.391C167.763 350.372 167.785 350.358 167.809 350.354C167.834 350.35 167.859 350.354 167.88 350.368C167.901 350.381 167.917 350.402 167.923 350.425L168.586 352.746C168.609 352.825 168.65 352.896 168.706 352.955C168.762 353.014 168.832 353.058 168.909 353.083L170.324 353.555C170.346 353.562 170.366 353.578 170.378 353.598C170.39 353.618 170.395 353.642 170.391 353.666C170.388 353.689 170.376 353.711 170.358 353.726C170.34 353.741 170.317 353.75 170.293 353.75H168.933C168.849 353.75 168.766 353.771 168.692 353.812C168.619 353.852 168.556 353.911 168.511 353.981L164.804 359.806C164.784 359.838 164.752 359.861 164.715 359.87C164.678 359.879 164.639 359.874 164.606 359.856C164.573 359.837 164.548 359.807 164.536 359.771C164.524 359.735 164.527 359.695 164.543 359.661L167.2 354.181C167.222 354.135 167.232 354.085 167.229 354.034C167.227 353.983 167.211 353.934 167.184 353.891C167.157 353.848 167.12 353.812 167.075 353.787C167.031 353.763 166.981 353.75 166.93 353.75H159.888C159.837 353.75 159.787 353.763 159.742 353.787C159.698 353.812 159.66 353.848 159.633 353.891C159.606 353.934 159.591 353.983 159.588 354.034C159.585 354.085 159.596 354.135 159.618 354.181L162.275 359.661C162.291 359.695 162.294 359.735 162.283 359.771C162.271 359.808 162.246 359.839 162.213 359.857C162.18 359.876 162.14 359.881 162.103 359.872C162.066 359.862 162.034 359.839 162.013 359.807L158.306 353.982C158.261 353.911 158.199 353.852 158.125 353.812C158.051 353.771 157.968 353.75 157.884 353.75H156.483C156.459 353.75 156.436 353.741 156.418 353.726C156.4 353.711 156.388 353.689 156.384 353.666C156.381 353.642 156.385 353.618 156.398 353.598C156.41 353.578 156.429 353.562 156.452 353.555L157.906 353.082C157.984 353.057 158.054 353.013 158.111 352.954C158.168 352.895 158.209 352.823 158.232 352.744L158.894 350.425C158.901 350.402 158.916 350.381 158.937 350.368C158.958 350.354 158.984 350.35 159.008 350.354C159.033 350.358 159.055 350.372 159.07 350.391C159.085 350.411 159.092 350.436 159.09 350.46L158.945 352.487C158.942 352.528 158.952 352.568 158.972 352.603C158.992 352.638 159.023 352.666 159.059 352.683C159.095 352.7 159.136 352.706 159.176 352.7C159.216 352.693 159.253 352.675 159.282 352.647L162.306 349.791C162.324 349.773 162.349 349.762 162.375 349.762C162.401 349.761 162.426 349.771 162.445 349.789C162.464 349.806 162.475 349.831 162.477 349.857C162.478 349.882 162.469 349.908 162.452 349.927L160.424 352.424C160.4 352.453 160.385 352.489 160.381 352.526C160.376 352.564 160.382 352.602 160.398 352.636C160.415 352.67 160.44 352.699 160.472 352.719C160.504 352.739 160.541 352.75 160.579 352.75H166.239C166.277 352.75 166.314 352.739 166.345 352.719C166.377 352.699 166.403 352.67 166.419 352.636C166.435 352.602 166.442 352.564 166.437 352.526C166.433 352.489 166.418 352.453 166.394 352.424L164.365 349.927C164.348 349.908 164.34 349.882 164.341 349.857C164.342 349.831 164.354 349.806 164.373 349.789C164.392 349.771 164.417 349.761 164.443 349.762C164.469 349.762 164.494 349.773 164.512 349.791Z" fill="black"/>
            </g>
            <g id="inkscape" clip-path="url(#clip5_1795_2707)">
              <path id="Vector_15" d="M192.751 359.77C192.751 360.07 195.079 360.242 194.95 359.699C194.764 358.785 193.008 358.857 192.751 359.77ZM182.824 361.355C183.353 361.812 184.153 361.255 184.41 360.613C183.895 359.942 181.996 360.656 182.824 361.355ZM192.465 360.399C191.808 360.998 192.579 361.627 193.222 361.212C193.393 361.098 193.208 360.541 192.465 360.399ZM190.622 358.257C192.022 357.272 197.164 356.772 194.793 354.402L188.694 348.162C187.937 347.449 186.695 347.449 185.995 348.162L180.111 354.188C177.883 356.415 181.553 356.229 182.881 357.072C183.496 357.472 180.91 357.986 181.439 358.514C181.953 359.042 184.538 359.528 185.052 360.042C185.566 360.57 184.01 361.127 184.524 361.655C185.024 362.183 186.223 361.684 186.438 362.883C186.595 363.768 188.637 363.326 189.551 362.569C190.123 362.083 188.566 362.083 189.08 361.555C190.365 360.256 191.508 360.97 191.979 359.77C192.236 359.128 190.037 358.671 190.622 358.257ZM185.556 357.854C185.178 357.683 184.549 357.825 184.23 357.591C184.028 357.442 184.352 357.401 184.902 357.329C185.698 357.225 186.928 357.63 187.137 357.738C187.346 357.845 187.372 357.911 187.372 357.911C187.577 358.717 186.463 358.262 185.556 357.854ZM189.594 350.804L189.366 352.189L188.409 351.675L186.852 352.66L186.338 350.59L185.509 352.389L183.438 352.374C183.039 352.374 183.096 351.96 183.51 351.546C184.324 350.647 185.909 349.119 186.409 348.591C186.923 348.063 187.823 348.077 188.337 348.591L190.665 350.961C190.88 351.175 190.88 351.618 190.751 351.746L189.594 350.804Z" fill="black"/>
            </g>
            <path d="M60 332H218V331H60V332Z" fill="#FBFCFC"/>
          </g>
        </g>
        <rect x="59.5" y="219" width="159" height="161" rx="12.5" stroke="#F2F5F5"/>
      </g>
      <g id="step_2">
        <g clip-path="url(#clip6_1795_2707)">
          <rect x="234" y="219.5" width="158" height="160" rx="12" fill="white"/>
          <g id="content_2">
            <g id="title_2">
              <text id="Step 2." fill="#D9DEDF" style="white-space: pre" font-family="Inter" font-size="12" font-weight="600" letter-spacing="0em"><tspan x="250" y="247.364">Step 2.</tspan></text>
              <g id="tag">
                <rect x="336" y="235.5" width="40" height="14" rx="4" fill="#D9DEDF"/>
                <text id="OPTIONAL" fill="white" style="white-space: pre" font-family="Inter" font-size="6" font-weight="bold" letter-spacing="0em"><tspan x="340" y="244.682">OPTIONAL</tspan></text>
              </g>
            </g>
            <g id="Wrap interactive svg elements in MLOC group.">
              <text fill="#111B1E" style="white-space: pre" font-family="Inter" font-size="12" letter-spacing="0em"><tspan x="250" y="272.364">Wrap interactive svg </tspan><tspan x="250" y="291.364">elements in </tspan><tspan x="354.543" y="291.364"> </tspan><tspan x="250" y="310.364">group.</tspan></text>
              <text fill="#111B1E" style="white-space: pre" font-family="Inter" font-size="12" font-weight="800" letter-spacing="0em"><tspan x="318.379" y="291.364">MLOC</tspan></text>
            </g>
          </g>
          <g id="footer_2">
            <g id="shapes">
              <text id="MLOC-shapes" fill="#1476FF" style="white-space: pre" font-family="Inter" font-size="8" font-weight="600" letter-spacing="0em"><tspan x="259" y="344.909">MLOC-shapes</tspan></text>
              <g id="MLOC-shapes_2">
                <circle id="shape01" cx="271" cy="360.5" r="7.5" fill="#F2F5F5" stroke="#D9DEDF"/>
                <path id="shape02" d="M302.5 366.562L292 360.5L302.5 354.438V366.562Z" fill="#F2F5F5" stroke="#D9DEDF"/>
                <path id="shape03" d="M319.979 358.219L327 353.118L334.021 358.219L331.339 366.472H322.661L319.979 358.219Z" fill="#F2F5F5" stroke="#D9DEDF"/>
                <rect id="shape04" x="347.5" y="353" width="15" height="15" fill="#F2F5F5" stroke="#D9DEDF"/>
                <rect x="259.25" y="348.75" width="107.5" height="23.5" stroke="#1476FF" stroke-width="0.5" stroke-dasharray="1 1"/>
              </g>
            </g>
            <path d="M234 332H392V331H234V332Z" fill="#FBFCFC"/>
          </g>
        </g>
        <rect x="233.5" y="219" width="159" height="161" rx="12.5" stroke="#F2F5F5"/>
      </g>
      <g id="step_3">
        <g clip-path="url(#clip7_1795_2707)">
          <rect x="408" y="219.5" width="158" height="160" rx="12" fill="white"/>
          <g id="content_3">
            <text id="Step 3." fill="#D9DEDF" style="white-space: pre" font-family="Inter" font-size="12" font-weight="600" letter-spacing="0em"><tspan x="424" y="247.364">Step 3.</tspan></text>
            <g id="Upload the SVG, PNG or JPG as layer, set the file width/height.">
              <text fill="#111B1E" style="white-space: pre" font-family="Inter" font-size="12" letter-spacing="0em"><tspan x="424" y="272.364">Upload the </tspan><tspan x="548.137" y="272.364"> </tspan><tspan x="424" y="291.364">or </tspan><tspan x="462.977" y="291.364"> as layer, set </tspan><tspan x="424" y="310.364">the file width/height.</tspan></text>
              <text fill="#111B1E" style="white-space: pre" font-family="Inter" font-size="12" letter-spacing="0em"><tspan x="515.617" y="272.364">, </tspan></text>
              <text fill="#111B1E" style="white-space: pre" font-family="Inter" font-size="12" font-weight="800" letter-spacing="0em"><tspan x="489.754" y="272.364">SVG</tspan><tspan x="522.355" y="272.364">PNG</tspan><tspan x="439" y="291.364">JPG</tspan></text>
            </g>
          </g>
          <g id="footer_3">
            <g id="layers">
              <g id="layers_2">
                <g id="Vector_16">
                  <path fill-rule="evenodd" clip-rule="evenodd" d="M463.202 348.237C463.39 348.143 463.61 348.143 463.798 348.237L470.465 351.57C470.691 351.683 470.833 351.914 470.833 352.167C470.833 352.419 470.691 352.65 470.465 352.763L463.798 356.096C463.61 356.19 463.39 356.19 463.202 356.096L456.535 352.763C456.309 352.65 456.167 352.419 456.167 352.167C456.167 351.914 456.309 351.683 456.535 351.57L463.202 348.237ZM458.324 352.167L463.5 354.755L468.676 352.167L463.5 349.579L458.324 352.167Z" fill="#767B7E"/>
                  <path fill-rule="evenodd" clip-rule="evenodd" d="M456.237 358.535C456.402 358.206 456.802 358.072 457.131 358.237L463.5 361.421L469.869 358.237C470.198 358.072 470.598 358.206 470.763 358.535C470.928 358.864 470.794 359.265 470.465 359.43L463.798 362.763C463.61 362.857 463.39 362.857 463.202 362.763L456.535 359.43C456.206 359.265 456.072 358.864 456.237 358.535Z" fill="#767B7E"/>
                  <path fill-rule="evenodd" clip-rule="evenodd" d="M456.237 355.202C456.402 354.872 456.802 354.739 457.131 354.904L463.5 358.088L469.869 354.904C470.198 354.739 470.598 354.872 470.763 355.202C470.928 355.531 470.794 355.932 470.465 356.096L463.798 359.43C463.61 359.523 463.39 359.523 463.202 359.43L456.535 356.096C456.206 355.932 456.072 355.531 456.237 355.202Z" fill="#767B7E"/>
                </g>
              </g>
              <text id="Layers" fill="#111B1E" style="white-space: pre" font-family="Inter" font-size="12" font-weight="600" letter-spacing="0em"><tspan x="479.5" y="359.864">Layers</tspan></text>
            </g>
            <path d="M408 332H566V331H408V332Z" fill="#FBFCFC"/>
          </g>
        </g>
        <rect x="407.5" y="219" width="159" height="161" rx="12.5" stroke="#F2F5F5"/>
      </g>
      <g id="step_4">
        <g clip-path="url(#clip8_1795_2707)">
          <rect x="582" y="219.5" width="158" height="160" rx="12" fill="white"/>
          <g id="content_4">
            <text id="Step 4." fill="#D9DEDF" style="white-space: pre" font-family="Inter" font-size="12" font-weight="600" letter-spacing="0em"><tspan x="598" y="247.364">Step 4.</tspan></text>
            <text id="Start adding your interactive locations. Example marker:" fill="#111B1E" style="white-space: pre" font-family="Inter" font-size="12" letter-spacing="0em"><tspan x="598" y="272.364">Start adding your </tspan><tspan x="598" y="291.364">interactive locations. </tspan><tspan x="598" y="310.364">Example marker:</tspan></text>
          </g>
          <g id="footer_4">
            <path d="M582 332H740V331H582V332Z" fill="#FBFCFC"/>
          </g>
        </g>
        <rect x="581.5" y="219" width="159" height="161" rx="12.5" stroke="#F2F5F5"/>
      </g>
    </g>
  </g>
</svg>